<svg width="32" height="32" viewBox="0 0 32 32" fill="none" xmlns="http://www.w3.org/2000/svg">
<g clip-path="url(#clip0_6243_8119)">
<path d="M16.6654 26.0913V19.3333H15.332V26.0913C14.7036 26.2536 14.1559 26.6395 13.7916 27.1767C13.4274 27.7138 13.2715 28.3654 13.3533 29.0093C13.4351 29.6532 13.7489 30.2451 14.2359 30.6742C14.7229 31.1033 15.3497 31.34 15.9987 31.34C16.6478 31.34 17.2745 31.1033 17.7615 30.6742C18.2485 30.2451 18.5623 29.6532 18.6441 29.0093C18.7259 28.3654 18.57 27.7138 18.2058 27.1767C17.8415 26.6395 17.2938 26.2536 16.6654 26.0913Z" fill="#165034"/>
<path d="M27.9987 25.9966C27.5242 25.9993 27.0592 26.1299 26.6527 26.3746L24.6654 24.3873V19.3333H23.332V24.6666C23.3321 24.8434 23.4023 25.013 23.5274 25.138L25.71 27.3206C25.465 27.727 25.3344 28.1921 25.332 28.6666C25.332 29.1941 25.4884 29.7096 25.7814 30.1482C26.0745 30.5867 26.4909 30.9285 26.9782 31.1303C27.4655 31.3322 28.0017 31.385 28.5189 31.2821C29.0362 31.1792 29.5114 30.9252 29.8843 30.5523C30.2573 30.1793 30.5112 29.7042 30.6141 29.1869C30.717 28.6696 30.6642 28.1334 30.4624 27.6462C30.2605 27.1589 29.9188 26.7424 29.4802 26.4494C29.0417 26.1564 28.5261 26 27.9987 26V25.9966Z" fill="#165034"/>
<path d="M7.33203 19.3333V24.3906L5.3447 26.3746C4.93819 26.1299 4.4732 25.9993 3.9987 25.9966C3.47128 25.9966 2.95571 26.153 2.51718 26.4461C2.07865 26.7391 1.73685 27.1556 1.53502 27.6428C1.33319 28.1301 1.28038 28.6663 1.38327 29.1836C1.48617 29.7008 1.74014 30.176 2.11308 30.5489C2.48602 30.9219 2.96118 31.1758 3.47846 31.2787C3.99574 31.3816 4.53192 31.3288 5.01919 31.127C5.50646 30.9252 5.92293 30.5834 6.21595 30.1448C6.50897 29.7063 6.66537 29.1907 6.66537 28.6633C6.66304 28.1888 6.53243 27.7237 6.28737 27.3173L8.47003 25.1333C8.59474 25.0086 8.66497 24.8396 8.66537 24.6633V19.3333H7.33203Z" fill="#165034"/>
<path d="M24.665 5.99667C24.5864 5.99667 24.509 5.99667 24.431 6.00267C23.777 4.63381 22.8005 3.44411 21.5854 2.53572C20.3704 1.62732 18.953 1.02736 17.455 0.787337L17.2977 0.764003C17.133 0.740003 16.969 0.717337 16.807 0.704003C16.2709 0.654004 15.7312 0.654004 15.195 0.704003C15.0277 0.717337 14.8617 0.740003 14.645 0.77067L14.5504 0.785337C13.051 1.02431 11.6321 1.62369 10.4155 2.532C9.19886 3.44031 8.22094 4.63039 7.56571 6C7.48771 6 7.41037 5.99667 7.33171 5.99667C5.5636 5.99667 3.8679 6.69905 2.61766 7.94929C1.36742 9.19953 0.665039 10.8952 0.665039 12.6633C0.665039 14.4314 1.36742 16.1271 2.61766 17.3774C3.8679 18.6276 5.5636 19.33 7.33171 19.33H24.665C26.4331 19.33 28.1288 18.6276 29.3791 17.3774C30.6293 16.1271 31.3317 14.4314 31.3317 12.6633C31.3317 10.8952 30.6293 9.19953 29.3791 7.94929C28.1288 6.69905 26.4331 5.99667 24.665 5.99667Z" fill="#B0E8CD"/>
<path d="M20.4066 9.23863C20.6066 7.9053 19.5926 7.19263 18.2066 6.7153L18.6566 4.9153L17.5592 4.64196L17.1212 6.39663C16.8332 6.3253 16.5366 6.2573 16.2426 6.18996L16.6832 4.4233L15.5866 4.14996L15.1366 5.94996L12.9239 5.39996L12.6319 6.5733C12.6319 6.5733 13.4459 6.7593 13.4319 6.7733C13.5838 6.79123 13.7226 6.86819 13.8183 6.98755C13.9139 7.10692 13.9588 7.25912 13.9432 7.4113L12.7119 12.35C12.6961 12.4001 12.6705 12.4466 12.6366 12.4869C12.6028 12.5272 12.5613 12.5603 12.5146 12.5845C12.4679 12.6088 12.4169 12.6235 12.3645 12.628C12.3121 12.6325 12.2594 12.6266 12.2092 12.6106C12.2199 12.626 11.4092 12.4106 11.4092 12.4106L10.8652 13.6666L13.0752 14.2246L12.6212 16.048L13.7172 16.3213L14.1666 14.5173C14.4666 14.5986 14.7566 14.674 15.0412 14.7446L14.5932 16.54L15.6906 16.8133L16.1446 14.9933C18.0159 15.3473 19.4226 15.2046 20.0152 13.512C20.1364 13.2731 20.2064 13.0116 20.2208 12.7442C20.2351 12.4768 20.1935 12.2093 20.0985 11.9589C20.0036 11.7084 19.8574 11.4806 19.6694 11.2899C19.4814 11.0991 19.2556 10.9498 19.0066 10.8513C19.3852 10.7747 19.7278 10.575 19.9811 10.2833C20.2343 9.99156 20.3839 9.62426 20.4066 9.23863ZM17.8992 12.7546C17.5606 14.1166 15.2659 13.38 14.5219 13.1953L15.1219 10.78C15.8686 10.966 18.2539 11.3333 17.8992 12.7546ZM18.2386 9.2213C17.9292 10.4613 16.0199 9.8313 15.4006 9.67663L15.9466 7.48596C16.5659 7.63796 18.5612 7.92596 18.2386 9.21863V9.2213Z" fill="#165034"/>
</g>
<defs>
<clipPath id="clip0_6243_8119">
<rect width="32" height="32" fill="white"/>
</clipPath>
</defs>
</svg>
